<?xml version="1.0"?>
<svg xmlns="http://www.w3.org/2000/svg" id="Layer_1" data-name="Layer 1" viewBox="0 0 512 512" width="512" height="512"><title>Down Escalator</title><path d="M41.139,174.1l.169,0,52.968-1.117a8,8,0,0,0-.337-16l-33.114.7L186.151,31.929a8,8,0,1,0-11.333-11.295L49.379,146.5l.406-33.271a8,8,0,1,0-16-.2L33.14,166a8,8,0,0,0,8,8.1Z"/><path d="M470.86,170H334.226a7.6,7.6,0,0,0-5.516,2.264L267,234.036V221.464A36.713,36.713,0,0,0,230.5,185h0a8.112,8.112,0,0,0-6.447,3.379,29.836,29.836,0,0,1-6.335,6.392,29.506,29.506,0,0,1-41.445-6.407A8.1,8.1,0,0,0,169.822,185h0C149.848,185,134,201.494,134,221.464V367.152L130.839,370H42.711A7.685,7.685,0,0,0,35,377.914v107.8c0,4.419,3.292,8.282,7.711,8.282H179.345A7.962,7.962,0,0,0,185,491.693L382.732,294H470.86a8.43,8.43,0,0,0,8.14-8.355v-107.8A7.986,7.986,0,0,0,470.86,170ZM150,221.464a20.094,20.094,0,0,1,16.484-19.921,45.449,45.449,0,0,0,60.754,6.179,46.392,46.392,0,0,0,6.957-6.18A20.372,20.372,0,0,1,251,221.464v28.572L150,351.152ZM463,278H379.419a7.962,7.962,0,0,0-5.657,2.307L176.032,478H51V386h83.152a8.042,8.042,0,0,0,5.657-2.386L262.4,261.005a7.871,7.871,0,0,0,3.42-3.35L337.54,186H463Z"/><path d="M160.789,149.193a39.37,39.37,0,1,0,39.37-39.37A39.414,39.414,0,0,0,160.789,149.193Zm62.74,0a23.37,23.37,0,1,1-23.37-23.37A23.4,23.4,0,0,1,223.529,149.193Z"/></svg>
